<mxfile host="app.diagrams.net" agent="Mozilla/5.0 (Macintosh; Intel Mac OS X 10.15; rv:130.0) Gecko/20100101 Firefox/130.0" version="24.7.16">
  <diagram name="Page-1" id="ad52d381-51e7-2e0d-a935-2d0ddd2fd229">
    <mxGraphModel dx="2463" dy="919" grid="1" gridSize="10" guides="1" tooltips="1" connect="1" arrows="1" fold="1" page="1" pageScale="1" pageWidth="1100" pageHeight="850" background="none" math="0" shadow="0">
      <root>
        <mxCell id="0" />
        <mxCell id="1" parent="0" />
        <mxCell id="e0X_U4gPlemam7wgZ4IY-131" value="" style="endArrow=classic;html=1;rounded=0;exitX=0.5;exitY=0;exitDx=0;exitDy=0;dashed=1;entryX=0.5;entryY=1;entryDx=0;entryDy=0;" edge="1" parent="1" source="e0X_U4gPlemam7wgZ4IY-110" target="e0X_U4gPlemam7wgZ4IY-37">
          <mxGeometry width="50" height="50" relative="1" as="geometry">
            <mxPoint x="360" y="965" as="sourcePoint" />
            <mxPoint x="350" y="740" as="targetPoint" />
            <Array as="points" />
          </mxGeometry>
        </mxCell>
        <mxCell id="e0X_U4gPlemam7wgZ4IY-128" value="" style="endArrow=classic;html=1;rounded=0;dashed=1;exitX=0.33;exitY=1.033;exitDx=0;exitDy=0;exitPerimeter=0;" edge="1" parent="1" source="e0X_U4gPlemam7wgZ4IY-124">
          <mxGeometry width="50" height="50" relative="1" as="geometry">
            <mxPoint x="310" y="70" as="sourcePoint" />
            <mxPoint x="400" y="513" as="targetPoint" />
          </mxGeometry>
        </mxCell>
        <mxCell id="e0X_U4gPlemam7wgZ4IY-122" value="" style="endArrow=classic;html=1;rounded=0;dashed=1;exitX=0.75;exitY=1;exitDx=0;exitDy=0;" edge="1" parent="1" source="e0X_U4gPlemam7wgZ4IY-123">
          <mxGeometry width="50" height="50" relative="1" as="geometry">
            <mxPoint x="300" y="50" as="sourcePoint" />
            <mxPoint x="298.67" y="410" as="targetPoint" />
          </mxGeometry>
        </mxCell>
        <mxCell id="e0X_U4gPlemam7wgZ4IY-107" value="" style="endArrow=classic;html=1;rounded=0;entryX=0.25;entryY=1;entryDx=0;entryDy=0;dashed=1;" edge="1" parent="1" source="e0X_U4gPlemam7wgZ4IY-104" target="e0X_U4gPlemam7wgZ4IY-59">
          <mxGeometry width="50" height="50" relative="1" as="geometry">
            <mxPoint x="710" y="975" as="sourcePoint" />
            <mxPoint x="710" y="530" as="targetPoint" />
          </mxGeometry>
        </mxCell>
        <mxCell id="e0X_U4gPlemam7wgZ4IY-1" value="Literal" style="ellipse;whiteSpace=wrap;html=1;" vertex="1" parent="1">
          <mxGeometry x="420" y="130" width="120" height="40" as="geometry" />
        </mxCell>
        <mxCell id="e0X_U4gPlemam7wgZ4IY-2" value="hasName" style="rounded=0;whiteSpace=wrap;html=1;" vertex="1" parent="1">
          <mxGeometry x="220" y="240" width="120" height="30" as="geometry" />
        </mxCell>
        <mxCell id="e0X_U4gPlemam7wgZ4IY-5" value="" style="endArrow=classic;html=1;rounded=0;exitX=0.5;exitY=0;exitDx=0;exitDy=0;entryX=0.5;entryY=1;entryDx=0;entryDy=0;" edge="1" parent="1" source="e0X_U4gPlemam7wgZ4IY-2" target="e0X_U4gPlemam7wgZ4IY-1">
          <mxGeometry relative="1" as="geometry">
            <mxPoint x="440" y="260" as="sourcePoint" />
            <mxPoint x="540" y="260" as="targetPoint" />
          </mxGeometry>
        </mxCell>
        <mxCell id="e0X_U4gPlemam7wgZ4IY-6" value="range" style="edgeLabel;resizable=0;html=1;;align=center;verticalAlign=middle;" connectable="0" vertex="1" parent="e0X_U4gPlemam7wgZ4IY-5">
          <mxGeometry relative="1" as="geometry" />
        </mxCell>
        <mxCell id="e0X_U4gPlemam7wgZ4IY-14" value="hasPhone" style="rounded=0;whiteSpace=wrap;html=1;" vertex="1" parent="1">
          <mxGeometry x="360" y="240" width="120" height="30" as="geometry" />
        </mxCell>
        <mxCell id="e0X_U4gPlemam7wgZ4IY-15" value="hasAge" style="rounded=0;whiteSpace=wrap;html=1;" vertex="1" parent="1">
          <mxGeometry x="500" y="240" width="120" height="30" as="geometry" />
        </mxCell>
        <mxCell id="e0X_U4gPlemam7wgZ4IY-17" value="hasGender" style="rounded=0;whiteSpace=wrap;html=1;" vertex="1" parent="1">
          <mxGeometry x="640" y="240" width="120" height="30" as="geometry" />
        </mxCell>
        <mxCell id="e0X_U4gPlemam7wgZ4IY-19" value="" style="endArrow=classic;html=1;rounded=0;exitX=0.5;exitY=0;exitDx=0;exitDy=0;" edge="1" parent="1" source="e0X_U4gPlemam7wgZ4IY-14">
          <mxGeometry relative="1" as="geometry">
            <mxPoint x="440" y="260" as="sourcePoint" />
            <mxPoint x="480" y="170" as="targetPoint" />
          </mxGeometry>
        </mxCell>
        <mxCell id="e0X_U4gPlemam7wgZ4IY-20" value="range" style="edgeLabel;resizable=0;html=1;;align=center;verticalAlign=middle;" connectable="0" vertex="1" parent="e0X_U4gPlemam7wgZ4IY-19">
          <mxGeometry relative="1" as="geometry" />
        </mxCell>
        <mxCell id="e0X_U4gPlemam7wgZ4IY-23" value="" style="endArrow=classic;html=1;rounded=0;exitX=0.5;exitY=0;exitDx=0;exitDy=0;" edge="1" parent="1" source="e0X_U4gPlemam7wgZ4IY-15">
          <mxGeometry relative="1" as="geometry">
            <mxPoint x="430" y="250" as="sourcePoint" />
            <mxPoint x="480" y="170" as="targetPoint" />
          </mxGeometry>
        </mxCell>
        <mxCell id="e0X_U4gPlemam7wgZ4IY-24" value="range" style="edgeLabel;resizable=0;html=1;;align=center;verticalAlign=middle;" connectable="0" vertex="1" parent="e0X_U4gPlemam7wgZ4IY-23">
          <mxGeometry relative="1" as="geometry" />
        </mxCell>
        <mxCell id="e0X_U4gPlemam7wgZ4IY-25" value="" style="endArrow=classic;html=1;rounded=0;exitX=0.5;exitY=0;exitDx=0;exitDy=0;entryX=0.5;entryY=1;entryDx=0;entryDy=0;" edge="1" parent="1" source="e0X_U4gPlemam7wgZ4IY-17" target="e0X_U4gPlemam7wgZ4IY-1">
          <mxGeometry relative="1" as="geometry">
            <mxPoint x="570" y="250" as="sourcePoint" />
            <mxPoint x="490" y="180" as="targetPoint" />
          </mxGeometry>
        </mxCell>
        <mxCell id="e0X_U4gPlemam7wgZ4IY-26" value="range" style="edgeLabel;resizable=0;html=1;;align=center;verticalAlign=middle;" connectable="0" vertex="1" parent="e0X_U4gPlemam7wgZ4IY-25">
          <mxGeometry relative="1" as="geometry" />
        </mxCell>
        <mxCell id="e0X_U4gPlemam7wgZ4IY-27" value="Person" style="ellipse;whiteSpace=wrap;html=1;" vertex="1" parent="1">
          <mxGeometry x="550" y="350" width="120" height="40" as="geometry" />
        </mxCell>
        <mxCell id="e0X_U4gPlemam7wgZ4IY-28" value="Hospital" style="ellipse;whiteSpace=wrap;html=1;" vertex="1" parent="1">
          <mxGeometry x="35" y="320" width="170" height="40" as="geometry" />
        </mxCell>
        <mxCell id="e0X_U4gPlemam7wgZ4IY-29" value="" style="endArrow=classic;html=1;rounded=0;exitX=0.5;exitY=1;exitDx=0;exitDy=0;entryX=0.425;entryY=0;entryDx=0;entryDy=0;entryPerimeter=0;" edge="1" parent="1" source="e0X_U4gPlemam7wgZ4IY-2" target="e0X_U4gPlemam7wgZ4IY-28">
          <mxGeometry relative="1" as="geometry">
            <mxPoint x="230" y="390" as="sourcePoint" />
            <mxPoint x="330" y="390" as="targetPoint" />
          </mxGeometry>
        </mxCell>
        <mxCell id="e0X_U4gPlemam7wgZ4IY-30" value="domain" style="edgeLabel;resizable=0;html=1;;align=center;verticalAlign=middle;" connectable="0" vertex="1" parent="e0X_U4gPlemam7wgZ4IY-29">
          <mxGeometry relative="1" as="geometry" />
        </mxCell>
        <mxCell id="e0X_U4gPlemam7wgZ4IY-31" value="" style="endArrow=classic;html=1;rounded=0;exitX=0.5;exitY=1;exitDx=0;exitDy=0;entryX=0.5;entryY=0;entryDx=0;entryDy=0;" edge="1" parent="1" source="e0X_U4gPlemam7wgZ4IY-14" target="e0X_U4gPlemam7wgZ4IY-27">
          <mxGeometry relative="1" as="geometry">
            <mxPoint x="290" y="280" as="sourcePoint" />
            <mxPoint x="321" y="360" as="targetPoint" />
          </mxGeometry>
        </mxCell>
        <mxCell id="e0X_U4gPlemam7wgZ4IY-32" value="domain" style="edgeLabel;resizable=0;html=1;;align=center;verticalAlign=middle;" connectable="0" vertex="1" parent="e0X_U4gPlemam7wgZ4IY-31">
          <mxGeometry relative="1" as="geometry" />
        </mxCell>
        <mxCell id="e0X_U4gPlemam7wgZ4IY-33" value="" style="endArrow=classic;html=1;rounded=0;exitX=0.5;exitY=1;exitDx=0;exitDy=0;entryX=0.5;entryY=0;entryDx=0;entryDy=0;" edge="1" parent="1" source="e0X_U4gPlemam7wgZ4IY-15" target="e0X_U4gPlemam7wgZ4IY-27">
          <mxGeometry relative="1" as="geometry">
            <mxPoint x="430" y="280" as="sourcePoint" />
            <mxPoint x="620" y="360" as="targetPoint" />
          </mxGeometry>
        </mxCell>
        <mxCell id="e0X_U4gPlemam7wgZ4IY-34" value="domain" style="edgeLabel;resizable=0;html=1;;align=center;verticalAlign=middle;" connectable="0" vertex="1" parent="e0X_U4gPlemam7wgZ4IY-33">
          <mxGeometry relative="1" as="geometry" />
        </mxCell>
        <mxCell id="e0X_U4gPlemam7wgZ4IY-35" value="" style="endArrow=classic;html=1;rounded=0;exitX=0.5;exitY=1;exitDx=0;exitDy=0;entryX=0.5;entryY=0;entryDx=0;entryDy=0;" edge="1" parent="1" source="e0X_U4gPlemam7wgZ4IY-17" target="e0X_U4gPlemam7wgZ4IY-27">
          <mxGeometry relative="1" as="geometry">
            <mxPoint x="570" y="280" as="sourcePoint" />
            <mxPoint x="620" y="360" as="targetPoint" />
          </mxGeometry>
        </mxCell>
        <mxCell id="e0X_U4gPlemam7wgZ4IY-36" value="domain" style="edgeLabel;resizable=0;html=1;;align=center;verticalAlign=middle;" connectable="0" vertex="1" parent="e0X_U4gPlemam7wgZ4IY-35">
          <mxGeometry relative="1" as="geometry" />
        </mxCell>
        <mxCell id="e0X_U4gPlemam7wgZ4IY-37" value="Doctor" style="ellipse;whiteSpace=wrap;html=1;" vertex="1" parent="1">
          <mxGeometry x="290" y="510" width="120" height="40" as="geometry" />
        </mxCell>
        <mxCell id="e0X_U4gPlemam7wgZ4IY-39" value="practiceAt" style="rounded=0;whiteSpace=wrap;html=1;" vertex="1" parent="1">
          <mxGeometry x="240" y="410" width="120" height="30" as="geometry" />
        </mxCell>
        <mxCell id="e0X_U4gPlemam7wgZ4IY-41" value="" style="endArrow=classic;html=1;rounded=0;exitX=0.5;exitY=0;exitDx=0;exitDy=0;entryX=0.5;entryY=1;entryDx=0;entryDy=0;" edge="1" parent="1" source="e0X_U4gPlemam7wgZ4IY-39" target="e0X_U4gPlemam7wgZ4IY-28">
          <mxGeometry relative="1" as="geometry">
            <mxPoint x="440" y="470" as="sourcePoint" />
            <mxPoint x="540" y="470" as="targetPoint" />
          </mxGeometry>
        </mxCell>
        <mxCell id="e0X_U4gPlemam7wgZ4IY-42" value="range" style="edgeLabel;resizable=0;html=1;;align=center;verticalAlign=middle;" connectable="0" vertex="1" parent="e0X_U4gPlemam7wgZ4IY-41">
          <mxGeometry relative="1" as="geometry" />
        </mxCell>
        <mxCell id="e0X_U4gPlemam7wgZ4IY-43" value="" style="endArrow=classic;html=1;rounded=0;exitX=0.5;exitY=1;exitDx=0;exitDy=0;entryX=0.5;entryY=0;entryDx=0;entryDy=0;" edge="1" parent="1" source="e0X_U4gPlemam7wgZ4IY-39" target="e0X_U4gPlemam7wgZ4IY-37">
          <mxGeometry relative="1" as="geometry">
            <mxPoint x="290" y="280" as="sourcePoint" />
            <mxPoint x="321" y="360" as="targetPoint" />
          </mxGeometry>
        </mxCell>
        <mxCell id="e0X_U4gPlemam7wgZ4IY-44" value="domain" style="edgeLabel;resizable=0;html=1;;align=center;verticalAlign=middle;" connectable="0" vertex="1" parent="e0X_U4gPlemam7wgZ4IY-43">
          <mxGeometry relative="1" as="geometry" />
        </mxCell>
        <mxCell id="e0X_U4gPlemam7wgZ4IY-46" value="" style="endArrow=classic;html=1;rounded=0;exitX=0.5;exitY=0;exitDx=0;exitDy=0;entryX=0.5;entryY=1;entryDx=0;entryDy=0;" edge="1" parent="1" source="e0X_U4gPlemam7wgZ4IY-37" target="e0X_U4gPlemam7wgZ4IY-27">
          <mxGeometry relative="1" as="geometry">
            <mxPoint x="440" y="470" as="sourcePoint" />
            <mxPoint x="540" y="470" as="targetPoint" />
          </mxGeometry>
        </mxCell>
        <mxCell id="e0X_U4gPlemam7wgZ4IY-47" value="subClassOf" style="edgeLabel;resizable=0;html=1;;align=center;verticalAlign=middle;" connectable="0" vertex="1" parent="e0X_U4gPlemam7wgZ4IY-46">
          <mxGeometry relative="1" as="geometry" />
        </mxCell>
        <mxCell id="e0X_U4gPlemam7wgZ4IY-48" value="Patient" style="ellipse;whiteSpace=wrap;html=1;" vertex="1" parent="1">
          <mxGeometry x="640" y="480" width="120" height="40" as="geometry" />
        </mxCell>
        <mxCell id="e0X_U4gPlemam7wgZ4IY-51" value="" style="endArrow=classic;html=1;rounded=0;exitX=0.5;exitY=0;exitDx=0;exitDy=0;entryX=0.5;entryY=1;entryDx=0;entryDy=0;" edge="1" parent="1" source="e0X_U4gPlemam7wgZ4IY-48" target="e0X_U4gPlemam7wgZ4IY-27">
          <mxGeometry relative="1" as="geometry">
            <mxPoint x="490" y="480" as="sourcePoint" />
            <mxPoint x="620" y="400" as="targetPoint" />
          </mxGeometry>
        </mxCell>
        <mxCell id="e0X_U4gPlemam7wgZ4IY-52" value="subClassOf" style="edgeLabel;resizable=0;html=1;;align=center;verticalAlign=middle;" connectable="0" vertex="1" parent="e0X_U4gPlemam7wgZ4IY-51">
          <mxGeometry relative="1" as="geometry" />
        </mxCell>
        <mxCell id="e0X_U4gPlemam7wgZ4IY-54" value="assistantOf" style="rounded=0;whiteSpace=wrap;html=1;" vertex="1" parent="1">
          <mxGeometry x="180" y="590" width="120" height="30" as="geometry" />
        </mxCell>
        <mxCell id="e0X_U4gPlemam7wgZ4IY-55" value="" style="endArrow=classic;html=1;rounded=0;exitX=0.5;exitY=0;exitDx=0;exitDy=0;entryX=0.5;entryY=1;entryDx=0;entryDy=0;" edge="1" parent="1" source="e0X_U4gPlemam7wgZ4IY-54" target="e0X_U4gPlemam7wgZ4IY-37">
          <mxGeometry relative="1" as="geometry">
            <mxPoint x="440" y="590" as="sourcePoint" />
            <mxPoint x="390" y="550" as="targetPoint" />
          </mxGeometry>
        </mxCell>
        <mxCell id="e0X_U4gPlemam7wgZ4IY-56" value="range" style="edgeLabel;resizable=0;html=1;;align=center;verticalAlign=middle;" connectable="0" vertex="1" parent="e0X_U4gPlemam7wgZ4IY-55">
          <mxGeometry relative="1" as="geometry" />
        </mxCell>
        <mxCell id="e0X_U4gPlemam7wgZ4IY-57" value="" style="endArrow=classic;html=1;rounded=0;exitX=0.5;exitY=1;exitDx=0;exitDy=0;entryX=0.5;entryY=0;entryDx=0;entryDy=0;" edge="1" parent="1" source="e0X_U4gPlemam7wgZ4IY-54" target="e0X_U4gPlemam7wgZ4IY-53">
          <mxGeometry relative="1" as="geometry">
            <mxPoint x="350" y="440" as="sourcePoint" />
            <mxPoint x="400" y="520" as="targetPoint" />
          </mxGeometry>
        </mxCell>
        <mxCell id="e0X_U4gPlemam7wgZ4IY-58" value="domain" style="edgeLabel;resizable=0;html=1;;align=center;verticalAlign=middle;" connectable="0" vertex="1" parent="e0X_U4gPlemam7wgZ4IY-57">
          <mxGeometry relative="1" as="geometry" />
        </mxCell>
        <mxCell id="e0X_U4gPlemam7wgZ4IY-59" value="treatedBy" style="rounded=0;whiteSpace=wrap;html=1;" vertex="1" parent="1">
          <mxGeometry x="510" y="550" width="120" height="30" as="geometry" />
        </mxCell>
        <mxCell id="e0X_U4gPlemam7wgZ4IY-60" value="" style="endArrow=classic;html=1;rounded=0;exitX=0;exitY=0.5;exitDx=0;exitDy=0;entryX=1;entryY=0.5;entryDx=0;entryDy=0;" edge="1" parent="1" source="e0X_U4gPlemam7wgZ4IY-59" target="e0X_U4gPlemam7wgZ4IY-37">
          <mxGeometry relative="1" as="geometry">
            <mxPoint x="410" y="610" as="sourcePoint" />
            <mxPoint x="370" y="560" as="targetPoint" />
          </mxGeometry>
        </mxCell>
        <mxCell id="e0X_U4gPlemam7wgZ4IY-61" value="range" style="edgeLabel;resizable=0;html=1;;align=center;verticalAlign=middle;" connectable="0" vertex="1" parent="e0X_U4gPlemam7wgZ4IY-60">
          <mxGeometry relative="1" as="geometry">
            <mxPoint x="-15" y="-8" as="offset" />
          </mxGeometry>
        </mxCell>
        <mxCell id="e0X_U4gPlemam7wgZ4IY-62" value="" style="endArrow=classic;html=1;rounded=0;exitX=1;exitY=0.5;exitDx=0;exitDy=0;entryX=0.5;entryY=1;entryDx=0;entryDy=0;" edge="1" parent="1" source="e0X_U4gPlemam7wgZ4IY-59" target="e0X_U4gPlemam7wgZ4IY-48">
          <mxGeometry relative="1" as="geometry">
            <mxPoint x="410" y="640" as="sourcePoint" />
            <mxPoint x="470" y="680" as="targetPoint" />
          </mxGeometry>
        </mxCell>
        <mxCell id="e0X_U4gPlemam7wgZ4IY-63" value="domain" style="edgeLabel;resizable=0;html=1;;align=center;verticalAlign=middle;" connectable="0" vertex="1" parent="e0X_U4gPlemam7wgZ4IY-62">
          <mxGeometry relative="1" as="geometry" />
        </mxCell>
        <mxCell id="e0X_U4gPlemam7wgZ4IY-64" value="hasReports" style="rounded=0;whiteSpace=wrap;html=1;" vertex="1" parent="1">
          <mxGeometry x="760" y="560" width="120" height="30" as="geometry" />
        </mxCell>
        <mxCell id="e0X_U4gPlemam7wgZ4IY-66" value="" style="endArrow=classic;html=1;rounded=0;exitX=0.5;exitY=0;exitDx=0;exitDy=0;" edge="1" parent="1" source="e0X_U4gPlemam7wgZ4IY-64">
          <mxGeometry relative="1" as="geometry">
            <mxPoint x="640" y="575" as="sourcePoint" />
            <mxPoint x="700" y="520" as="targetPoint" />
            <Array as="points" />
          </mxGeometry>
        </mxCell>
        <mxCell id="e0X_U4gPlemam7wgZ4IY-67" value="domain" style="edgeLabel;resizable=0;html=1;;align=center;verticalAlign=middle;" connectable="0" vertex="1" parent="e0X_U4gPlemam7wgZ4IY-66">
          <mxGeometry relative="1" as="geometry" />
        </mxCell>
        <mxCell id="e0X_U4gPlemam7wgZ4IY-68" value="Reports" style="ellipse;whiteSpace=wrap;html=1;" vertex="1" parent="1">
          <mxGeometry x="760" y="640" width="120" height="40" as="geometry" />
        </mxCell>
        <mxCell id="e0X_U4gPlemam7wgZ4IY-69" value="" style="endArrow=classic;html=1;rounded=0;exitX=0.5;exitY=1;exitDx=0;exitDy=0;entryX=0.5;entryY=0;entryDx=0;entryDy=0;" edge="1" parent="1" source="e0X_U4gPlemam7wgZ4IY-64" target="e0X_U4gPlemam7wgZ4IY-68">
          <mxGeometry relative="1" as="geometry">
            <mxPoint x="520" y="575" as="sourcePoint" />
            <mxPoint x="430" y="540" as="targetPoint" />
          </mxGeometry>
        </mxCell>
        <mxCell id="e0X_U4gPlemam7wgZ4IY-70" value="range" style="edgeLabel;resizable=0;html=1;;align=center;verticalAlign=middle;" connectable="0" vertex="1" parent="e0X_U4gPlemam7wgZ4IY-69">
          <mxGeometry relative="1" as="geometry" />
        </mxCell>
        <mxCell id="e0X_U4gPlemam7wgZ4IY-71" value="affiliatedWith" style="rounded=0;whiteSpace=wrap;html=1;" vertex="1" parent="1">
          <mxGeometry x="60" y="450" width="120" height="30" as="geometry" />
        </mxCell>
        <mxCell id="e0X_U4gPlemam7wgZ4IY-76" value="" style="endArrow=classic;html=1;rounded=0;exitX=0.5;exitY=0;exitDx=0;exitDy=0;entryX=0.5;entryY=1;entryDx=0;entryDy=0;" edge="1" parent="1" source="e0X_U4gPlemam7wgZ4IY-71" target="e0X_U4gPlemam7wgZ4IY-28">
          <mxGeometry relative="1" as="geometry">
            <mxPoint x="310" y="420" as="sourcePoint" />
            <mxPoint x="290" y="360" as="targetPoint" />
          </mxGeometry>
        </mxCell>
        <mxCell id="e0X_U4gPlemam7wgZ4IY-77" value="range" style="edgeLabel;resizable=0;html=1;;align=center;verticalAlign=middle;" connectable="0" vertex="1" parent="e0X_U4gPlemam7wgZ4IY-76">
          <mxGeometry relative="1" as="geometry" />
        </mxCell>
        <mxCell id="e0X_U4gPlemam7wgZ4IY-78" value="Lab" style="ellipse;whiteSpace=wrap;html=1;" vertex="1" parent="1">
          <mxGeometry x="60" y="740" width="120" height="40" as="geometry" />
        </mxCell>
        <mxCell id="e0X_U4gPlemam7wgZ4IY-79" value="" style="endArrow=classic;html=1;rounded=0;entryX=0.5;entryY=0;entryDx=0;entryDy=0;exitX=0.5;exitY=1;exitDx=0;exitDy=0;" edge="1" parent="1" source="e0X_U4gPlemam7wgZ4IY-71" target="e0X_U4gPlemam7wgZ4IY-78">
          <mxGeometry relative="1" as="geometry">
            <mxPoint x="140" y="490" as="sourcePoint" />
            <mxPoint x="370" y="520" as="targetPoint" />
          </mxGeometry>
        </mxCell>
        <mxCell id="e0X_U4gPlemam7wgZ4IY-80" value="domain" style="edgeLabel;resizable=0;html=1;;align=center;verticalAlign=middle;" connectable="0" vertex="1" parent="e0X_U4gPlemam7wgZ4IY-79">
          <mxGeometry relative="1" as="geometry" />
        </mxCell>
        <mxCell id="e0X_U4gPlemam7wgZ4IY-81" value="generatedBy" style="rounded=0;whiteSpace=wrap;html=1;" vertex="1" parent="1">
          <mxGeometry x="510" y="745" width="120" height="30" as="geometry" />
        </mxCell>
        <mxCell id="e0X_U4gPlemam7wgZ4IY-82" value="" style="endArrow=classic;html=1;rounded=0;exitX=0;exitY=0.5;exitDx=0;exitDy=0;entryX=1;entryY=0.5;entryDx=0;entryDy=0;" edge="1" parent="1" source="e0X_U4gPlemam7wgZ4IY-81" target="e0X_U4gPlemam7wgZ4IY-78">
          <mxGeometry relative="1" as="geometry">
            <mxPoint x="830" y="600" as="sourcePoint" />
            <mxPoint x="830" y="650" as="targetPoint" />
          </mxGeometry>
        </mxCell>
        <mxCell id="e0X_U4gPlemam7wgZ4IY-83" value="range" style="edgeLabel;resizable=0;html=1;;align=center;verticalAlign=middle;" connectable="0" vertex="1" parent="e0X_U4gPlemam7wgZ4IY-82">
          <mxGeometry relative="1" as="geometry" />
        </mxCell>
        <mxCell id="e0X_U4gPlemam7wgZ4IY-84" value="" style="endArrow=classic;html=1;rounded=0;exitX=1;exitY=0.5;exitDx=0;exitDy=0;entryX=0.5;entryY=1;entryDx=0;entryDy=0;" edge="1" parent="1" source="e0X_U4gPlemam7wgZ4IY-81" target="e0X_U4gPlemam7wgZ4IY-68">
          <mxGeometry relative="1" as="geometry">
            <mxPoint x="830" y="570" as="sourcePoint" />
            <mxPoint x="710" y="530" as="targetPoint" />
            <Array as="points" />
          </mxGeometry>
        </mxCell>
        <mxCell id="e0X_U4gPlemam7wgZ4IY-85" value="domain" style="edgeLabel;resizable=0;html=1;;align=center;verticalAlign=middle;" connectable="0" vertex="1" parent="e0X_U4gPlemam7wgZ4IY-84">
          <mxGeometry relative="1" as="geometry" />
        </mxCell>
        <mxCell id="e0X_U4gPlemam7wgZ4IY-88" value="" style="endArrow=none;dashed=1;html=1;dashPattern=12 12;strokeWidth=2;rounded=0;" edge="1" parent="1">
          <mxGeometry width="50" height="50" relative="1" as="geometry">
            <mxPoint x="-80" y="120" as="sourcePoint" />
            <mxPoint x="1040" y="120" as="targetPoint" />
          </mxGeometry>
        </mxCell>
        <mxCell id="e0X_U4gPlemam7wgZ4IY-89" value="" style="endArrow=none;dashed=1;html=1;strokeWidth=2;rounded=0;dashPattern=12 12;" edge="1" parent="1">
          <mxGeometry width="50" height="50" relative="1" as="geometry">
            <mxPoint x="-100" y="830" as="sourcePoint" />
            <mxPoint x="1060" y="830" as="targetPoint" />
          </mxGeometry>
        </mxCell>
        <mxCell id="e0X_U4gPlemam7wgZ4IY-90" value="RDFS" style="text;html=1;align=center;verticalAlign=middle;whiteSpace=wrap;rounded=0;" vertex="1" parent="1">
          <mxGeometry x="-90" y="790" width="60" height="30" as="geometry" />
        </mxCell>
        <mxCell id="e0X_U4gPlemam7wgZ4IY-92" value="RDF" style="text;html=1;align=center;verticalAlign=middle;whiteSpace=wrap;rounded=0;" vertex="1" parent="1">
          <mxGeometry x="-90" y="840" width="60" height="30" as="geometry" />
        </mxCell>
        <mxCell id="e0X_U4gPlemam7wgZ4IY-93" value="Angular Laboratories" style="ellipse;whiteSpace=wrap;html=1;" vertex="1" parent="1">
          <mxGeometry x="50" y="900" width="140" height="40" as="geometry" />
        </mxCell>
        <mxCell id="e0X_U4gPlemam7wgZ4IY-94" value="generatedBy" style="rounded=0;whiteSpace=wrap;html=1;" vertex="1" parent="1">
          <mxGeometry x="510" y="905" width="120" height="30" as="geometry" />
        </mxCell>
        <mxCell id="e0X_U4gPlemam7wgZ4IY-95" value="Blood report" style="ellipse;whiteSpace=wrap;html=1;" vertex="1" parent="1">
          <mxGeometry x="770" y="900" width="120" height="40" as="geometry" />
        </mxCell>
        <mxCell id="e0X_U4gPlemam7wgZ4IY-96" value="" style="endArrow=classic;html=1;rounded=0;exitX=0;exitY=0.5;exitDx=0;exitDy=0;entryX=1;entryY=0.5;entryDx=0;entryDy=0;" edge="1" parent="1" source="e0X_U4gPlemam7wgZ4IY-95" target="e0X_U4gPlemam7wgZ4IY-94">
          <mxGeometry width="50" height="50" relative="1" as="geometry">
            <mxPoint x="420" y="830" as="sourcePoint" />
            <mxPoint x="470" y="780" as="targetPoint" />
          </mxGeometry>
        </mxCell>
        <mxCell id="e0X_U4gPlemam7wgZ4IY-97" value="" style="endArrow=classic;html=1;rounded=0;exitX=0;exitY=0.5;exitDx=0;exitDy=0;entryX=1;entryY=0.5;entryDx=0;entryDy=0;" edge="1" parent="1" source="e0X_U4gPlemam7wgZ4IY-94" target="e0X_U4gPlemam7wgZ4IY-93">
          <mxGeometry width="50" height="50" relative="1" as="geometry">
            <mxPoint x="770" y="925" as="sourcePoint" />
            <mxPoint x="640" y="925" as="targetPoint" />
          </mxGeometry>
        </mxCell>
        <mxCell id="e0X_U4gPlemam7wgZ4IY-101" value="" style="endArrow=classic;html=1;rounded=0;dashed=1;exitX=0.5;exitY=0;exitDx=0;exitDy=0;entryX=0.5;entryY=1;entryDx=0;entryDy=0;" edge="1" parent="1" source="e0X_U4gPlemam7wgZ4IY-93" target="e0X_U4gPlemam7wgZ4IY-78">
          <mxGeometry width="50" height="50" relative="1" as="geometry">
            <mxPoint x="140" y="820" as="sourcePoint" />
            <mxPoint x="220" y="800" as="targetPoint" />
          </mxGeometry>
        </mxCell>
        <mxCell id="e0X_U4gPlemam7wgZ4IY-102" value="" style="endArrow=classic;html=1;rounded=0;dashed=1;exitX=0.5;exitY=0;exitDx=0;exitDy=0;entryX=0.5;entryY=1;entryDx=0;entryDy=0;" edge="1" parent="1" source="e0X_U4gPlemam7wgZ4IY-94" target="e0X_U4gPlemam7wgZ4IY-81">
          <mxGeometry width="50" height="50" relative="1" as="geometry">
            <mxPoint x="150" y="905" as="sourcePoint" />
            <mxPoint x="150" y="790" as="targetPoint" />
            <Array as="points">
              <mxPoint x="570" y="830" />
            </Array>
          </mxGeometry>
        </mxCell>
        <mxCell id="e0X_U4gPlemam7wgZ4IY-103" value="" style="endArrow=classic;html=1;rounded=0;dashed=1;exitX=0.414;exitY=0.042;exitDx=0;exitDy=0;exitPerimeter=0;" edge="1" parent="1" source="e0X_U4gPlemam7wgZ4IY-95">
          <mxGeometry width="50" height="50" relative="1" as="geometry">
            <mxPoint x="820" y="890" as="sourcePoint" />
            <mxPoint x="820" y="680" as="targetPoint" />
            <Array as="points">
              <mxPoint x="820" y="830" />
            </Array>
          </mxGeometry>
        </mxCell>
        <mxCell id="e0X_U4gPlemam7wgZ4IY-104" value="treatedBy" style="rounded=0;whiteSpace=wrap;html=1;" vertex="1" parent="1">
          <mxGeometry x="480" y="970" width="120" height="30" as="geometry" />
        </mxCell>
        <mxCell id="e0X_U4gPlemam7wgZ4IY-105" value="Mark Zukerberg" style="ellipse;whiteSpace=wrap;html=1;" vertex="1" parent="1">
          <mxGeometry x="640" y="965" width="120" height="40" as="geometry" />
        </mxCell>
        <mxCell id="e0X_U4gPlemam7wgZ4IY-106" value="" style="endArrow=classic;html=1;rounded=0;entryX=0.5;entryY=1;entryDx=0;entryDy=0;exitX=0.5;exitY=0;exitDx=0;exitDy=0;dashed=1;" edge="1" parent="1" source="e0X_U4gPlemam7wgZ4IY-105" target="e0X_U4gPlemam7wgZ4IY-48">
          <mxGeometry width="50" height="50" relative="1" as="geometry">
            <mxPoint x="410" y="760" as="sourcePoint" />
            <mxPoint x="460" y="710" as="targetPoint" />
          </mxGeometry>
        </mxCell>
        <mxCell id="e0X_U4gPlemam7wgZ4IY-108" value="" style="endArrow=classic;html=1;rounded=0;exitX=0;exitY=0.5;exitDx=0;exitDy=0;entryX=1;entryY=0.5;entryDx=0;entryDy=0;" edge="1" parent="1" source="e0X_U4gPlemam7wgZ4IY-105" target="e0X_U4gPlemam7wgZ4IY-104">
          <mxGeometry width="50" height="50" relative="1" as="geometry">
            <mxPoint x="770" y="925" as="sourcePoint" />
            <mxPoint x="640" y="925" as="targetPoint" />
          </mxGeometry>
        </mxCell>
        <mxCell id="e0X_U4gPlemam7wgZ4IY-110" value="Ashutosh" style="ellipse;whiteSpace=wrap;html=1;" vertex="1" parent="1">
          <mxGeometry x="290" y="965" width="120" height="40" as="geometry" />
        </mxCell>
        <mxCell id="e0X_U4gPlemam7wgZ4IY-112" value="" style="endArrow=classic;html=1;rounded=0;entryX=1;entryY=0.5;entryDx=0;entryDy=0;" edge="1" parent="1" target="e0X_U4gPlemam7wgZ4IY-110">
          <mxGeometry width="50" height="50" relative="1" as="geometry">
            <mxPoint x="480" y="985" as="sourcePoint" />
            <mxPoint x="610" y="995" as="targetPoint" />
          </mxGeometry>
        </mxCell>
        <mxCell id="e0X_U4gPlemam7wgZ4IY-126" style="edgeStyle=orthogonalEdgeStyle;rounded=0;orthogonalLoop=1;jettySize=auto;html=1;exitX=0;exitY=0.5;exitDx=0;exitDy=0;entryX=1;entryY=0.5;entryDx=0;entryDy=0;" edge="1" parent="1" source="e0X_U4gPlemam7wgZ4IY-123" target="e0X_U4gPlemam7wgZ4IY-125">
          <mxGeometry relative="1" as="geometry" />
        </mxCell>
        <mxCell id="e0X_U4gPlemam7wgZ4IY-123" value="practiceAt" style="rounded=0;whiteSpace=wrap;html=1;" vertex="1" parent="1">
          <mxGeometry x="210" y="30" width="120" height="30" as="geometry" />
        </mxCell>
        <mxCell id="e0X_U4gPlemam7wgZ4IY-124" value="Ashutosh" style="ellipse;whiteSpace=wrap;html=1;" vertex="1" parent="1">
          <mxGeometry x="370" y="25" width="90" height="40" as="geometry" />
        </mxCell>
        <mxCell id="e0X_U4gPlemam7wgZ4IY-125" value="Flutter Clinic" style="ellipse;whiteSpace=wrap;html=1;" vertex="1" parent="1">
          <mxGeometry x="20" y="25" width="120" height="40" as="geometry" />
        </mxCell>
        <mxCell id="e0X_U4gPlemam7wgZ4IY-129" value="" style="endArrow=classic;html=1;rounded=0;exitX=0;exitY=0.5;exitDx=0;exitDy=0;entryX=1;entryY=0.5;entryDx=0;entryDy=0;" edge="1" parent="1" source="e0X_U4gPlemam7wgZ4IY-124" target="e0X_U4gPlemam7wgZ4IY-123">
          <mxGeometry width="50" height="50" relative="1" as="geometry">
            <mxPoint x="520" y="925" as="sourcePoint" />
            <mxPoint x="220" y="925" as="targetPoint" />
          </mxGeometry>
        </mxCell>
        <mxCell id="e0X_U4gPlemam7wgZ4IY-130" value="" style="endArrow=classic;html=1;rounded=0;dashed=1;exitX=0.5;exitY=1;exitDx=0;exitDy=0;" edge="1" parent="1" source="e0X_U4gPlemam7wgZ4IY-125">
          <mxGeometry width="50" height="50" relative="1" as="geometry">
            <mxPoint x="81.33000000000001" y="60" as="sourcePoint" />
            <mxPoint x="80" y="320" as="targetPoint" />
          </mxGeometry>
        </mxCell>
        <mxCell id="e0X_U4gPlemam7wgZ4IY-53" value="Nurse" style="ellipse;whiteSpace=wrap;html=1;" vertex="1" parent="1">
          <mxGeometry x="180" y="670" width="120" height="40" as="geometry" />
        </mxCell>
      </root>
    </mxGraphModel>
  </diagram>
</mxfile>
